<?xml version="1.0" encoding="UTF-8" standalone="no"?>
<svg width="24px" height="24px" viewBox="0 0 24 24" version="1.1" xmlns="http://www.w3.org/2000/svg" xmlns:xlink="http://www.w3.org/1999/xlink">
    <!-- Generator: Sketch 49.3 (51167) - http://www.bohemiancoding.com/sketch -->
    <title>icon/diamond</title>
    <desc>Created with Sketch.</desc>
    <defs></defs>
    <g id="icon/diamond" stroke="none" stroke-width="1" fill="none" fill-rule="evenodd">
        <g id="diamond-icon" transform="translate(2.000000, 3.000000)" fill="#22A0EA" fill-rule="nonzero">
            <path d="M15.7125,0 L4.2875,0 L0,6.04771242 L10,19 L20,6.18431373 L15.7125,0 Z M7.6,5.29019608 L10,2.21045752 L12.875,5.29019608 L7.6,5.29019608 Z M12.975,6.53202614 L10,15.8084967 L7.1125,6.54444444 L12.975,6.53202614 Z M10.8375,1.24183007 L14.6875,1.24183007 L13.75,4.33398693 L10.8375,1.24183007 Z M6.525,4.64444444 L5.475,1.24183007 L9.225,1.24183007 L6.525,4.64444444 Z M5.425,5.29019608 L2.0625,5.29019608 L4.4,2.04901961 L5.425,5.29019608 Z M5,6.53202614 L5.775,6.53202614 L8.35,14.8647059 L1.95,6.53202614 L5,6.53202614 Z M14.25,6.53202614 L18.1125,6.53202614 L11.5375,14.951634 L14.25,6.53202614 Z M14.6625,5.29019608 L15.6625,2.17320261 L17.825,5.29019608 L14.6625,5.29019608 Z" id="Shape"></path>
        </g>
    </g>
</svg>