<?xml version="1.0" encoding="UTF-8"?>
<svg width="30px" height="14px" viewBox="0 0 30 14" version="1.1" xmlns="http://www.w3.org/2000/svg" xmlns:xlink="http://www.w3.org/1999/xlink">
    <!-- Generator: Sketch 50.2 (55047) - http://www.bohemiancoding.com/sketch -->
    <title>game-icon</title>
    <desc>Created with Sketch.</desc>
    <defs></defs>
    <g id="SMS-Landing-page" stroke="none" stroke-width="1" fill="none" fill-rule="evenodd">
        <g id="SMS-Landing/Mobile" transform="translate(-36.000000, -364.000000)">
            <g id="Select-game" transform="translate(37.000000, 362.000000)">
                <g id="game-icon" transform="translate(0.000000, 3.000000)">
                    <path d="M6,0 C2.68629311,0 0,2.68629311 0,6 C0,6.15801615 0.0154035049,6.40687205 0.0462105146,6.7465677 C0.413773859,9.70789151 2.93911151,12 6,12 C9.06083268,12 11.5861703,9.70789151 11.9537895,6.7465677 L15.561335,6.7465677 C15.9288983,9.70789151 18.454236,12 21.5151245,12 C24.8288313,12 27.5151245,9.31365108 27.5151245,6 C27.5151245,2.68629311 24.8288313,0 21.5151245,0 L6,0 Z" id="Fill-1" stroke="#22A0EA" stroke-width="1.3"></path>
                    <path d="M6.85714286,5.71428571 L8,5.71428571 C8.31559129,5.71428571 8.57142857,5.970123 8.57142857,6.28571429 C8.57142857,6.60130557 8.31559129,6.85714286 8,6.85714286 L6.85714286,6.85714286 L6.85714286,8 C6.85714286,8.31559129 6.60130557,8.57142857 6.28571429,8.57142857 C5.970123,8.57142857 5.71428571,8.31559129 5.71428571,8 L5.71428571,6.85714286 L4.57142857,6.85714286 C4.25583729,6.85714286 4,6.60130557 4,6.28571429 C4,5.970123 4.25583729,5.71428571 4.57142857,5.71428571 L5.71428571,5.71428571 L5.71428571,4.57142857 C5.71428571,4.25583729 5.970123,4 6.28571429,4 C6.60130557,4 6.85714286,4.25583729 6.85714286,4.57142857 L6.85714286,5.71428571 Z" id="Combined-Shape" fill="#22A0EA"></path>
                    <g id="Group" transform="translate(20.000000, 4.571429)" fill="#22A0EA">
                        <circle id="Oval" cx="0.649999976" cy="1.79285712" r="1"></circle>
                        <circle id="Oval" cx="1.79285712" cy="0.649999976" r="1"></circle>
                        <circle id="Oval" cx="1.79285712" cy="2.93571426" r="1"></circle>
                        <circle id="Oval" cx="2.93571426" cy="1.79285712" r="1"></circle>
                    </g>
                </g>
            </g>
        </g>
    </g>
</svg>